<svg width="83" height="84" viewBox="0 0 83 84" fill="none" xmlns="http://www.w3.org/2000/svg">
<g filter="url(#filter0_d_1_17126)">
<rect x="14.6923" y="12" width="53.8462" height="56" rx="26.9231" fill="white"/>
</g>
<path d="M39 50C39.5523 50 40 49.5523 40 49C40 48.4477 39.5523 48 39 48C38.4477 48 38 48.4477 38 49C38 49.5523 38.4477 50 39 50Z" stroke="black" stroke-width="2" stroke-linecap="round" stroke-linejoin="round"/>
<path d="M50 50C50.5523 50 51 49.5523 51 49C51 48.4477 50.5523 48 50 48C49.4477 48 49 48.4477 49 49C49 49.5523 49.4477 50 50 50Z" stroke="black" stroke-width="2" stroke-linecap="round" stroke-linejoin="round"/>
<path d="M31 29H35L37.68 42.39C37.7714 42.8504 38.0219 43.264 38.3875 43.5583C38.7532 43.8526 39.2107 44.009 39.68 44H49.4C49.8693 44.009 50.3268 43.8526 50.6925 43.5583C51.0581 43.264 51.3086 42.8504 51.4 42.39L53 34H36" stroke="black" stroke-width="2" stroke-linecap="round" stroke-linejoin="round"/>
<defs>
<filter id="filter0_d_1_17126" x="0.692322" y="0" width="81.8462" height="84" filterUnits="userSpaceOnUse" color-interpolation-filters="sRGB">
<feFlood flood-opacity="0" result="BackgroundImageFix"/>
<feColorMatrix in="SourceAlpha" type="matrix" values="0 0 0 0 0 0 0 0 0 0 0 0 0 0 0 0 0 0 127 0" result="hardAlpha"/>
<feOffset dy="2"/>
<feGaussianBlur stdDeviation="7"/>
<feComposite in2="hardAlpha" operator="out"/>
<feColorMatrix type="matrix" values="0 0 0 0 0 0 0 0 0 0 0 0 0 0 0 0 0 0 0.09 0"/>
<feBlend mode="normal" in2="BackgroundImageFix" result="effect1_dropShadow_1_17126"/>
<feBlend mode="normal" in="SourceGraphic" in2="effect1_dropShadow_1_17126" result="shape"/>
</filter>
</defs>
</svg>
